<?xml version="1.0" encoding="UTF-8"?>
<svg width="23px" height="23px" viewBox="0 0 23 23" version="1.1" xmlns="http://www.w3.org/2000/svg" xmlns:xlink="http://www.w3.org/1999/xlink">
    <!-- Generator: sketchtool 62 (101010) - https://sketch.com -->
    <title>94E8BAA9-11E1-4A7C-8520-3006678B68DD</title>
    <desc>Created with sketchtool.</desc>
    <g id="Page-1" stroke="none" stroke-width="1" fill="none" fill-rule="evenodd">
        <g id="Outlook-Template" transform="translate(-160.000000, -1155.000000)" fill="#2F313C" fill-rule="nonzero">
            <g id="Group-12" transform="translate(158.000000, 1019.000000)">
                <g id="date" transform="translate(2.000000, 136.000000)">
                    <path d="M18.081063,2.822821 L18.081063,0.9656031 C18.081063,0.5415102 17.7381666,0.1986138 17.3140737,0.1986138 C16.8899808,0.1986138 16.5470844,0.5415102 16.5470844,0.9656031 L16.5470844,2.822821 L5.9446464,2.822821 L5.9446464,0.9656031 C5.9446464,0.5415102 5.60175,0.1986138 5.1776571,0.1986138 C4.7535642,0.1986138 4.4106678,0.5415102 4.4106678,0.9656031 L4.4106678,2.822821 L2.6510946,2.822821 C1.2344178,2.822821 0.0793716,3.9642844 0.0793716,5.380915 L0.0793716,20.019848 C0.0793716,21.4365248 1.2298671,22.591571 2.6510946,22.591571 L19.5249516,22.591571 C20.9416284,22.591571 22.0966746,21.436571 22.0966746,20.019848 L22.0966746,5.380915 C22.0966746,3.9642382 20.9461791,2.822821 19.5249516,2.822821 L18.081063,2.822821 Z M20.5625112,20.019848 C20.5625112,20.5928435 20.0978085,21.0575462 19.524813,21.0575462 L2.650956,21.0575462 C2.0779605,21.0575462 1.6132578,20.5928435 1.6132578,20.019848 L1.6132578,9.27442 L20.5625112,9.27442 L20.5625112,20.019848 Z M1.6133502,7.74058 L1.6133502,5.380915 C1.6133502,4.8079195 2.0780529,4.3567534 2.6510484,4.3567534 L4.4106216,4.3567534 L4.4106216,4.9297489 C4.4106216,5.3538418 4.753518,5.6967382 5.1776109,5.6967382 C5.6017038,5.6967382 5.9446002,5.3538418 5.9446002,4.9297489 L5.9446002,4.3567534 L16.5470382,4.3567534 L16.5470382,4.9297489 C16.5470382,5.3538418 16.8899346,5.6967382 17.3140275,5.6967382 C17.7381204,5.6967382 18.0810168,5.3538418 18.0810168,4.9297489 L18.0810168,4.3567534 L19.5247668,4.3567534 C20.0977623,4.3567534 20.562465,4.8079195 20.562465,5.380915 L20.562465,7.74058 L1.6133502,7.74058 Z" id="Shape"></path>
                </g>
            </g>
        </g>
    </g>
</svg>