<?xml version="1.0" encoding="UTF-8"?>
<svg width="24px" height="24px" viewBox="0 0 24 24" version="1.1" xmlns="http://www.w3.org/2000/svg" xmlns:xlink="http://www.w3.org/1999/xlink">
    <!-- Generator: sketchtool 63.1 (101010) - https://sketch.com -->
    <title>5D682DCF-F696-499D-98FA-2E0BB245F196</title>
    <desc>Created with sketchtool.</desc>
    <g id="Page-1" stroke="none" stroke-width="1" fill="none" fill-rule="evenodd">
        <g id="Outlook-Template" transform="translate(-306.000000, -1823.000000)" fill="#1877F2" fill-rule="nonzero">
            <g id="Social_inactive-Copy" transform="translate(306.000000, 1823.000000)">
                <g id="Facebook">
                    <path d="M12,0 C18.627417,0 24,5.372583 24,12 C24,18.627417 18.627417,24 12,24 C5.372583,24 0,18.627417 0,12 C0,5.372583 5.372583,0 12,0 Z M12.9200883,6.4 C11.4543046,6.4 10.4476821,7.32896119 10.4476821,9.03286167 L10.4476821,10.4985825 L8.8,10.4985825 L8.8,12.4956272 L10.4512141,12.4956272 L10.4512141,17.6 L12.4379691,17.6 L12.4379691,12.4992915 L14.0962472,12.4992915 L14.3434879,10.5022468 L12.4379691,10.5022468 L12.4379691,9.23073398 C12.4379691,8.6536064 12.5933775,8.25969392 13.3898455,8.25969392 L14.4,8.25969392 L14.4,6.4788431 C13.9084305,6.4248613 13.4144019,6.39856189 12.9200883,6.4 Z" id="Combined-Shape"></path>
                </g>
            </g>
        </g>
    </g>
</svg>