<?xml version="1.0" encoding="UTF-8"?>
<svg width="24px" height="24px" viewBox="0 0 24 24" version="1.1" xmlns="http://www.w3.org/2000/svg" xmlns:xlink="http://www.w3.org/1999/xlink">
    <!-- Generator: sketchtool 63.1 (101010) - https://sketch.com -->
    <title>89DEA317-3F81-4D9C-B138-C9E051C96D30</title>
    <desc>Created with sketchtool.</desc>
    <g id="Page-1" stroke="none" stroke-width="1" fill="none" fill-rule="evenodd">
        <g id="Outlook-Template" transform="translate(-420.000000, -1783.000000)" fill="#838996" fill-rule="nonzero">
            <g id="Group-11" transform="translate(281.000000, 1722.000000)">
                <g id="Social_inactive" transform="translate(24.000000, 61.000000)">
                    <path d="M127,0 C133.627417,0 139,5.372583 139,12 C139,18.627417 133.627417,24 127,24 C120.372583,24 115,18.627417 115,12 C115,5.372583 120.372583,0 127,0 Z M129.126111,6 L124.473889,6 C122.448055,6 120.8,7.64807602 120.8,9.67393675 L120.8,9.67393675 L120.8,14.3260632 C120.8,16.351924 122.448055,18 124.473889,18 L124.473889,18 L129.126111,18 C131.151945,18 132.8,16.351924 132.8,14.3260632 L132.8,14.3260632 L132.8,9.67393675 C132.8,7.64807602 131.151945,6 129.126111,6 L129.126111,6 Z M129.126111,6.89842655 C130.656392,6.89842655 131.901429,8.14363608 131.901429,9.67393675 L131.901429,9.67393675 L131.901429,14.3260632 C131.901429,15.8563639 130.656392,17.1014177 129.126111,17.1014177 L129.126111,17.1014177 L124.473889,17.1014177 C122.943608,17.1014177 121.698571,15.8563639 121.698571,14.3260632 L121.698571,14.3260632 L121.698571,9.67393675 C121.698571,8.14363608 122.943608,6.89842655 124.473889,6.89842655 L124.473889,6.89842655 Z M126.799923,9 C125.145839,9 123.8,10.3458045 123.8,12 C123.8,13.6541955 125.145839,15 126.799923,15 C128.454161,15 129.8,13.6541955 129.8,12 C129.8,10.3458045 128.454161,9 126.799923,9 Z M126.799923,9.90931486 C127.952839,9.90931486 128.890662,10.8472671 128.890662,12 C128.890662,13.1527329 127.952839,14.0905312 126.799923,14.0905312 C125.647315,14.0905312 124.709492,13.1527329 124.709492,12 C124.709492,10.8472671 125.647315,9.90931486 126.799923,9.90931486 Z M129.799901,8 C129.247817,8 128.8,8.4476641 128.8,9 C128.8,9.5523359 129.247817,10 129.799901,10 C130.352183,10 130.8,9.5523359 130.8,9 C130.8,8.4476641 130.352183,8 129.799901,8 Z" id="Instagram"></path>
                </g>
            </g>
        </g>
    </g>
</svg>