<?xml version="1.0" encoding="UTF-8"?>
<svg width="25px" height="24px" viewBox="0 0 25 24" version="1.1" xmlns="http://www.w3.org/2000/svg" xmlns:xlink="http://www.w3.org/1999/xlink">
    <!-- Generator: sketchtool 62 (101010) - https://sketch.com -->
    <title>6215DA7B-FF3D-426A-B3FF-48BD13DCFE56</title>
    <desc>Created with sketchtool.</desc>
    <g id="Page-1" stroke="none" stroke-width="1" fill="none" fill-rule="evenodd">
        <g id="Outlook-Template" transform="translate(-381.000000, -1783.000000)" fill="#838996" fill-rule="nonzero">
            <g id="Group-11" transform="translate(281.000000, 1722.000000)">
                <g id="Social_inactive" transform="translate(24.000000, 61.000000)">
                    <g id="linkedin_inactive" transform="translate(76.800000, 0.000000)">
                        <path d="M12,0 C18.627417,0 24,5.372583 24,12 C24,18.627417 18.627417,24 12,24 C5.372583,24 0,18.627417 0,12 C0,5.372583 5.372583,0 12,0 Z M14.6647396,9.95409793 C13.4197917,9.95409793 12.8958594,10.9235725 12.8958594,10.9235725 L12.8958594,10.9235725 L12.8958594,10.1333333 L11.1533333,10.1333333 L11.1533333,16 L12.8958594,16 L12.8958594,12.9203579 C12.8958594,12.0951879 13.2757031,11.6041516 14.0027344,11.6041516 C14.6710417,11.6041516 14.991875,12.0760046 14.991875,12.9203579 L14.991875,12.9203579 L14.991875,16 L16.8,16 L16.8,12.2855897 C16.8,10.7139873 15.9091146,9.95409793 14.6647396,9.95409793 Z M9.99174479,10.1333333 L8.17473958,10.1333333 L8.17473958,16 L9.99174479,16 L9.99174479,10.1333333 Z M9.07450521,7.2 C8.48096354,7.2 8,7.68473727 8,8.28257036 C8,8.88040345 8.48096354,9.36514072 9.07450521,9.36514072 L9.07450521,9.36514072 L9.1915997,9.35878767 C9.73000081,9.30000643 10.148724,8.84054791 10.148724,8.28257036 C10.148724,7.68473727 9.66804687,7.2 9.07450521,7.2 Z" id="Combined-Shape"></path>
                    </g>
                </g>
            </g>
        </g>
    </g>
</svg>