<?xml version="1.0" encoding="UTF-8"?>
<svg width="20px" height="24px" viewBox="0 0 20 24" version="1.1" xmlns="http://www.w3.org/2000/svg" xmlns:xlink="http://www.w3.org/1999/xlink">
    <!-- Generator: sketchtool 62 (101010) - https://sketch.com -->
    <title>A5910FC9-2CDF-4E63-87CA-9C5754D6B20B</title>
    <desc>Created with sketchtool.</desc>
    <g id="Page-1" stroke="none" stroke-width="1" fill="none" fill-rule="evenodd">
        <g id="Outlook-Template" transform="translate(-161.000000, -1234.000000)" fill="#2F313C" fill-rule="nonzero">
            <g id="Group-12" transform="translate(158.000000, 1019.000000)">
                <g id="location" transform="translate(3.000000, 215.000000)">
                    <path d="M9.84,0 C15.16584,0 19.4652,4.29936 19.4652,9.6252 C19.4652,15.07968 14.13936,21.11136 9.84,24 C5.54064,21.11256 0.2148,15.08064 0.2148,9.6252 C0.2148,4.29936 4.51416,0 9.84,0 Z M9.84,1.54032 C5.3484,1.54032 1.75416,5.13384 1.75416,9.62616 C1.75416,14.11776 6.31032,19.6368 9.84,22.14 C13.30512,19.6368 17.92584,14.11872 17.92584,9.62616 C17.92584,5.13456 14.33232,1.54032 9.84,1.54032 Z" id="Shape"></path>
                    <path d="M9.84,5.26224 C12.2784,5.26224 14.20416,7.18692 14.20416,9.6264 C14.20416,12.00108 12.214776,13.99056 9.84,13.99056 C7.4016,13.99056 5.47584,12.06588 5.47584,9.6264 C5.47584,7.188 7.40052,5.26224 9.84,5.26224 Z M9.84,6.737856 C8.235936,6.737856 6.95256,8.021304 6.95256,9.625296 C6.95256,11.165616 8.236008,12.449136 9.84,12.449136 C11.38032,12.449136 12.66384,11.165688 12.66384,9.625296 C12.66384,8.021232 11.380392,6.737856 9.84,6.737856 Z" id="Shape"></path>
                </g>
            </g>
        </g>
    </g>
</svg>