<?xml version="1.0" encoding="UTF-8"?>
<svg width="130px" height="13px" viewBox="0 0 130 13" version="1.1" xmlns="http://www.w3.org/2000/svg" xmlns:xlink="http://www.w3.org/1999/xlink">
    <!-- Generator: sketchtool 62 (101010) - https://sketch.com -->
    <title>961DC050-972B-4EAB-BAF3-2533FC5FC34D@2x</title>
    <desc>Created with sketchtool.</desc>
    <g id="Page-1" stroke="none" stroke-width="1" fill="none" fill-rule="evenodd">
        <g id="Outlook-Template" transform="translate(-310.000000, -1722.000000)" fill="#05DEBA" fill-rule="nonzero">
            <g id="Group-11" transform="translate(281.000000, 1722.000000)">
                <path d="M156.46874,0.417431193 C156.180631,0.695718653 156.036575,1.03363915 156.036575,1.43119266 L156.036575,7.30504588 C156.036575,8.02064223 155.995416,8.56697706 155.913099,8.94495411 C155.830781,9.32262995 155.635277,9.51146787 155.326588,9.51146787 C155.161953,9.51146787 154.950859,9.44671493 154.693618,9.31781115 C154.436687,9.1883051 154.112407,9.0142248 153.721399,8.79587155 L139.583393,0.447247707 C139.35702,0.308103976 139.104767,0.198776759 138.826946,0.119266056 C138.549125,0.0394541787 138.266316,0 137.978205,0 C137.134452,0 136.429454,0.278287462 135.863521,0.834862388 C135.297902,1.39143731 135.01478,2.07721713 135.01478,2.89220184 L135.01478,11.5688074 C135.01478,11.9663608 135.158835,12.3042814 135.446946,12.5825689 C135.735057,12.8605551 136.084905,13 136.496492,13 C136.908078,13 137.257928,12.8605551 137.546038,12.5825689 C137.834149,12.3042814 137.978205,11.9663608 137.978205,11.5688074 L137.978205,5.69495414 C137.978205,4.97935781 138.019363,4.43272172 138.101681,4.05504588 C138.183998,3.67737004 138.379502,3.48853212 138.688192,3.48853212 C138.852827,3.48853212 139.06392,3.55298397 139.32085,3.68249005 C139.578092,3.81139376 139.902373,3.98547401 140.29338,4.20412845 L154.431386,12.5527523 C154.65776,12.6918961 154.909701,12.800922 155.187521,12.880734 C155.465343,12.9602447 155.748464,13 156.036575,13 C156.880329,13 157.585327,12.7217125 158.150946,12.1651377 C158.716878,11.6085627 159,10.9224817 159,10.1077982 L159,1.43119266 C159,1.03363915 158.855945,0.695718653 158.567834,0.417431193 C158.279724,0.139143731 157.929874,0 157.518288,0 C157.1067,0 156.756852,0.139143731 156.46874,0.417431193 Z M112.521873,0 C111.636961,0 110.844657,0.198776759 110.14496,0.596330274 C109.445262,0.993582623 108.848461,1.50588454 108.354557,2.13203133 C107.860653,2.75817812 107.485236,3.45359559 107.227682,4.2191873 C106.970752,4.98417664 106.841976,5.74464833 106.841976,6.5 C106.841976,7.23547402 106.965452,7.98088686 107.212404,8.73623855 C107.459356,9.49128902 107.814193,10.1773701 108.277229,10.793578 C108.740264,11.409786 109.301207,11.9214855 109.959746,12.329279 C110.618285,12.7364703 111.36943,12.9602447 112.213183,13 L126.289452,13 C127.174363,13 127.966668,12.800922 128.666365,12.4036698 C129.366063,12.0061162 129.962864,11.4944167 130.456768,10.8682698 C130.950672,10.242123 131.326401,9.5461033 131.58333,8.78111385 C131.840884,8.01552229 131.969349,7.25505049 131.969349,6.5 C131.969349,5.76422483 131.845873,5.01911316 131.598921,4.26376148 C131.351969,3.50840979 130.996819,2.82262998 130.533785,2.20642202 C130.070749,1.59021407 129.510118,1.07821332 128.851579,0.671022152 C128.193041,0.263228613 127.441894,0.0394541787 126.598141,0 L112.521873,0 Z M111.425868,9.76505882 C110.983723,9.51628676 110.633875,9.21330276 110.376321,8.85550464 C110.119391,8.49770644 109.944155,8.10497184 109.851548,7.67790287 C109.758941,7.25023174 109.712794,6.85779818 109.712794,6.50000002 C109.712794,6.14220185 109.758941,5.74946716 109.851548,5.32239831 C109.944155,4.8947271 110.119391,4.50229359 110.376321,4.14449542 C110.633875,3.78669726 110.983723,3.48341211 111.425868,3.23524234 C111.868636,2.98647021 112.449845,2.86238532 113.170122,2.86238532 L125.641202,2.86238532 C126.3409,2.86238532 126.917121,2.98647021 127.369867,3.23524234 C127.822613,3.48341211 128.177762,3.78669726 128.434691,4.14449542 C128.692245,4.50229359 128.866858,4.8947271 128.959465,5.32239831 C129.052072,5.74946716 129.098532,6.14220185 129.098532,6.50000002 C129.098532,6.85779818 129.052072,7.25023174 128.959465,7.67790287 C128.866858,8.10497184 128.692245,8.49770644 128.434691,8.85550464 C128.177762,9.21330276 127.822613,9.51628676 127.369867,9.76505882 C126.917121,10.0132287 126.3409,10.1376147 125.641202,10.1376147 L113.170122,10.1376147 C112.449845,10.1376147 111.868636,10.0132287 111.425868,9.76505882 Z M100.912008,0.417431193 C100.623897,0.695718653 100.479842,1.03363915 100.479842,1.43119266 L100.479842,11.5688074 C100.479842,11.9663608 100.623897,12.3042814 100.912008,12.5825689 C101.200118,12.8605551 101.549967,13 101.961554,13 C102.373141,13 102.72299,12.8605551 103.0111,12.5825689 C103.299211,12.3042814 103.443267,11.9663608 103.443267,11.5688074 L103.443267,1.43119266 C103.443267,1.03363915 103.299211,0.695718653 103.0111,0.417431193 C102.72299,0.139143731 102.373141,0 101.961554,0 C101.549967,0 101.200118,0.139143731 100.912008,0.417431193 Z M93.9262573,0.417431193 C93.1030838,0.993582623 92.2440522,1.56039756 91.3488509,2.11697248 C90.4536497,2.6735474 89.5169779,3.17048931 88.5397712,3.60779817 C87.5619406,4.04510704 86.5588537,4.39808638 85.5298869,4.66643501 C84.5009198,4.93478363 83.4513736,5.06880735 82.3812479,5.06880735 L80.8630539,5.06880735 L80.8630539,1.43119266 C80.8630539,1.03363915 80.7189985,0.695718653 80.4308877,0.417431193 C80.1427769,0.139143731 79.7929282,0 79.3813414,0 C78.990334,0 78.6507749,0.139143731 78.3626641,0.417431193 C78.0745534,0.695718653 77.930498,1.03363915 77.930498,1.43119266 L77.930498,11.5688074 C77.930498,11.9663608 78.0745534,12.3042814 78.3626641,12.5825689 C78.6507749,12.8605551 79.0006236,13 79.4122104,13 C79.8032177,13 80.1427769,12.8605551 80.4308877,12.5825689 C80.7189985,12.3042814 80.8630539,11.9663608 80.8630539,11.5688074 L80.8630539,7.93119268 L82.3812479,7.93119268 C83.4513736,7.93119268 84.5009198,8.06009638 85.5298869,8.31880734 C86.5588537,8.57721717 87.5569517,8.92477525 88.5241807,9.36238532 C89.4914096,9.79969424 90.4227806,10.2963349 91.317982,10.853211 C92.2131832,11.409786 93.0825044,11.9862386 93.9262573,12.5825689 C94.276106,12.8605551 94.6259548,13 94.9758037,13 C95.3873905,13 95.7372392,12.8605551 96.02535,12.5825689 C96.3134608,12.3042814 96.4575161,11.9663608 96.4575161,11.5688074 C96.4575161,11.2905199 96.3751987,11.0471689 96.210564,10.8384533 C96.0459294,10.6297377 95.8504256,10.4454174 95.6240529,10.2866973 C95.0889901,9.88914372 94.5745065,9.51628676 94.0806023,9.16872852 C93.5866982,8.82056816 93.0927941,8.49770644 92.59889,8.19954133 C92.1049858,7.90137614 91.5958031,7.61284863 91.0710298,7.3348624 C90.5462568,7.05657494 89.9853137,6.77798626 89.388513,6.5 C89.9853137,6.22171255 90.5462568,5.94342509 91.0710298,5.66513763 C91.5958031,5.38685016 92.1049858,5.09862386 92.59889,4.80045873 C93.0927941,4.50229359 93.5866982,4.17913076 94.0806023,3.83157262 C94.5745065,3.48341211 95.0889901,3.1105551 95.6240529,2.71330276 C95.8504256,2.55428135 96.0459294,2.37056344 96.210564,2.16184784 C96.3751987,1.95313225 96.4575161,1.70948013 96.4575161,1.43119266 C96.4575161,1.03363915 96.3134608,0.695718653 96.02535,0.417431193 C95.7372392,0.139143731 95.3873905,0 94.9758037,0 C94.6259548,0 94.276106,0.139143731 93.9262573,0.417431193 Z M60.5574818,0 C59.6722583,0 58.8802657,0.198776759 58.180568,0.596330274 C57.4805587,0.993582623 56.8840697,1.50588454 56.3901655,2.13203133 C55.8962613,2.75817812 55.5205326,3.45359559 55.2636025,4.2191873 C55.0060491,4.98417664 54.8775841,5.74464833 54.8775841,6.5 C54.8775841,7.23547402 55.0010601,7.99082569 55.2480122,8.76605509 C55.4949643,9.54128442 55.849802,10.242123 56.3128371,10.8682698 C56.776184,11.4944167 57.3368152,12.0061162 57.995354,12.4036698 C58.6535812,12.800922 59.4050387,13 60.2487918,13 L72.6328771,13 C73.0441521,13 73.3943126,12.8605551 73.6824233,12.5825689 C73.9702223,12.3042814 74.1145895,11.9663608 74.1145895,11.5688074 C74.1145895,11.1712539 73.9702223,10.8330321 73.6824233,10.5550459 C73.3943126,10.2767585 73.0441521,10.1376147 72.6328771,10.1376147 L61.2366001,10.1376147 C60.5163231,10.1376147 59.9348009,10.0132287 59.4923451,9.76505882 C59.0498892,9.51628676 58.7000405,9.21330276 58.4427988,8.85550464 C58.1855569,8.49770644 58.0106327,8.10497184 57.9180256,7.67790287 C57.8254185,7.25023174 57.7792709,6.85779818 57.7792709,6.5 C57.7792709,6.14220185 57.8254185,5.74946716 57.9180256,5.32239831 C58.0106327,4.8947271 58.1855569,4.50229359 58.4427988,4.14449542 C58.7000405,3.78669726 59.0498892,3.48341211 59.4923451,3.23524234 C59.9348009,2.98647021 60.5163231,2.86238532 61.2366001,2.86238532 L72.6328771,2.86238532 C73.0441521,2.86238532 73.3943126,2.7232416 73.6824233,2.44495413 C73.9702223,2.16666667 74.1145895,1.82874618 74.1145895,1.43119266 C74.1145895,1.03363915 73.9702223,0.695718653 73.6824233,0.417431193 C73.3943126,0.139143731 73.0441521,0 72.6328771,0 L60.5574818,0 Z M30.4817124,0 C30.0701257,0 29.7202769,0.139143731 29.4321661,0.417431193 C29.1440554,0.695718653 29,1.03363915 29,1.43119266 C29,1.82874618 29.1440554,2.16666667 29.4321661,2.44495413 C29.7202769,2.7232416 30.0701257,2.86238532 30.4817124,2.86238532 L39.6189393,2.86238532 L39.6189393,11.7458994 C39.6189393,12.0940598 39.7629946,12.3901168 40.0511054,12.63407 C40.3392161,12.8780233 40.689065,13 41.1006517,13 C41.5122384,13 41.8620872,12.8780233 42.150198,12.63407 C42.4383088,12.3901168 42.5823641,12.0940598 42.5823641,11.7458994 L42.5823641,2.86238532 L51.843067,2.86238532 C52.213495,2.82262998 52.5324748,2.66872858 52.8000062,2.40037996 C53.0675377,2.13203133 53.2013034,1.8088685 53.2013034,1.43119266 C53.2013034,1.03363915 53.057248,0.695718653 52.7691372,0.417431193 C52.4810265,0.139143731 52.1311778,0 51.7195908,0 L30.4817124,0 Z M61.4904119,5.06880735 C61.1025224,5.06880735 60.7729413,5.20795108 60.5016681,5.48623854 C60.2300833,5.76422483 60.0944467,6.1024465 60.0944467,6.50000002 C60.0944467,6.89755353 60.2300833,7.23547402 60.5016681,7.51376147 C60.7729413,7.79204894 61.1025224,7.93119268 61.4904119,7.93119268 L71.5664931,7.93119268 C71.9543824,7.93119268 72.2836519,7.79204894 72.5552367,7.51376147 C72.8268217,7.23547402 72.9624582,6.89755353 72.9624582,6.50000002 C72.9624582,6.1024465 72.8268217,5.76422483 72.5552367,5.48623854 C72.2836519,5.20795108 71.9543824,5.06880735 71.5664931,5.06880735 L61.4904119,5.06880735 Z" id="logo_footer"></path>
            </g>
        </g>
    </g>
</svg>