<?xml version="1.0" encoding="UTF-8"?>
<svg width="26px" height="26px" viewBox="0 0 26 26" version="1.1" xmlns="http://www.w3.org/2000/svg" xmlns:xlink="http://www.w3.org/1999/xlink">
    <!-- Generator: sketchtool 62 (101010) - https://sketch.com -->
    <title>08E83899-8309-4D73-8A39-6BB3025D2BD6</title>
    <desc>Created with sketchtool.</desc>
    <g id="Page-1" stroke="none" stroke-width="1" fill="none" fill-rule="evenodd">
        <g id="Outlook-Template" transform="translate(-158.000000, -1019.000000)" fill="#2F313C" fill-rule="nonzero">
            <g id="Group-12" transform="translate(158.000000, 1019.000000)">
                <g id="stay">
                    <path d="M24.8,25.6 L0.8,25.6 C0.3579904,25.6 0,25.2420096 0,24.8 C0,24.3579904 0.3579904,24 0.8,24 L24.8,24 C25.2420096,24 25.6,24.3579904 25.6,24.8 C25.6,25.2420096 25.2420096,25.6 24.8,25.6 Z" id="Path"></path>
                    <path d="M13.91488,25.6 L2.373888,25.6 C1.9318784,25.6 1.573888,25.2420096 1.573888,24.8 L1.573888,0.8 C1.573888,0.3579904 1.9318784,0 2.373888,0 L13.91488,0 C14.3568896,0 14.71488,0.3579904 14.71488,0.8 L14.71488,24.8 C14.71488,25.2420096 14.3568896,25.6 13.91488,25.6 Z M3.173888,24 L13.11488,24 L13.11488,1.6 L3.173888,1.6 L3.173888,24 Z" id="Shape"></path>
                    <path d="M23.226112,25.6 L13.915136,25.6 C13.4731264,25.6 13.115136,25.2420096 13.115136,24.8 L13.115136,8.99712 C13.115136,8.5551104 13.4731264,8.19712 13.915136,8.19712 L23.226112,8.19712 C23.6681216,8.19712 24.026112,8.5551104 24.026112,8.99712 L24.026112,24.8 C24.026112,25.2420096 23.6681216,25.6 23.226112,25.6 Z M14.715136,24 L22.426112,24 L22.426112,9.79712 L14.715136,9.79712 L14.715136,24 Z" id="Shape"></path>
                    <path d="M10.544128,25.6 L5.744128,25.6 C5.3021184,25.6 4.944128,25.2420096 4.944128,24.8 L4.944128,16.898048 C4.944128,16.4560384 5.3021184,16.098048 5.744128,16.098048 L10.544128,16.098048 C10.9861376,16.098048 11.344128,16.4560384 11.344128,16.898048 L11.344128,24.8 C11.344128,25.2420096 10.9861376,25.6 10.544128,25.6 Z M6.544128,24 L9.744128,24 L9.744128,17.698048 L6.544128,17.698048 L6.544128,24 Z" id="Shape"></path>
                </g>
            </g>
        </g>
    </g>
</svg>