<?xml version="1.0" encoding="UTF-8"?>
<svg width="25px" height="24px" viewBox="0 0 25 24" version="1.1" xmlns="http://www.w3.org/2000/svg" xmlns:xlink="http://www.w3.org/1999/xlink">
    <!-- Generator: sketchtool 63.1 (101010) - https://sketch.com -->
    <title>D32978AA-D59F-4014-BB85-CAB999696C69</title>
    <desc>Created with sketchtool.</desc>
    <g id="Page-1" stroke="none" stroke-width="1" fill="none" fill-rule="evenodd">
        <g id="Outlook-Template" transform="translate(-344.000000, -1823.000000)" fill="#1DA1F2" fill-rule="nonzero">
            <g id="Social_inactive-Copy" transform="translate(306.000000, 1823.000000)">
                <g id="twitter" transform="translate(38.400000, 0.000000)">
                    <path d="M12,0 C18.627417,0 24,5.372583 24,12 C24,18.627417 18.627417,24 12,24 C5.372583,24 0,18.627417 0,12 C0,5.372583 5.372583,0 12,0 Z M14.1542484,7.2 C12.6712074,7.2 11.5808738,8.6596644 11.9157895,10.1759274 C10.0059168,10.0746304 8.3128999,9.10984127 7.17991056,7.64350113 C6.57777778,8.73280726 6.86756106,10.157932 7.89102167,10.8789116 C7.51427589,10.8667211 7.15982112,10.7575873 6.8499484,10.5761814 C6.8251806,11.6988662 7.5877537,12.7486984 8.69294806,12.98322 C8.36959064,13.0758095 8.01541108,13.0969977 7.65545236,13.0244354 C7.94771242,13.9871927 8.79642243,14.6878549 9.80171999,14.7073016 C8.83577571,15.506068 7.61885105,15.8624943 6.4,15.7109841 C7.41685587,16.398585 8.624699,16.8 9.92225662,16.8 C14.1886481,16.8 16.5985552,12.9994739 16.453526,9.59078458 C16.9023736,9.249161 17.2920537,8.82249433 17.6,8.33632653 C17.1877537,8.52905215 16.7449604,8.65937415 16.2801514,8.71771429 C16.7545924,8.41817687 17.1189542,7.94303855 17.2904025,7.37705215 C16.8465084,7.65482086 16.35473,7.85654422 15.8313037,7.96509751 C15.4124527,7.49402268 14.8152735,7.2 14.1542484,7.2 Z" id="Combined-Shape"></path>
                </g>
            </g>
        </g>
    </g>
</svg>